# xmcd
#
# Track frame offsets:
#	150
#	8655
#	24895
#	42863
#	58774
#	79090
#	104488
#	127385
#	144659
#	164363
#	188891
#	196940
#	200967
#	219751
#	229093
#
# Disc length: 3320 seconds
#
# Revision: 0
# Processed by: cddbd v1.5.2PL0 Copyright (c) Steve Scherf et al.
# Submitted via: audiograbber 1.83.01
#
DISCID=d30cf60f
DTITLE=Alicia Keys - Songs in a Minor 
DYEAR=2001
DGENRE=Soul
TTITLE0=Piano and I
TTITLE1=Girlfriend
TTITLE2=How Come You Don´t Call Me
TTITLE3=Fallin
TTITLE4=Troubles
TTITLE5=Rock With U
TTITLE6=A Woman´s Worth
TTITLE7=Jane Deo
TTITLE8=Goodbye
TTITLE9=The Life
TTITLE10=Mr. Man 
TTITLE11=Never Felt This Way 
TTITLE12=Butterflyz 
TTITLE13=Why Do I Feel So Sad 
TTITLE14=Caged Bird 
EXTD=
EXTT0=
EXTT1=
EXTT2=
EXTT3=
EXTT4=
EXTT5=
EXTT6=
EXTT7=
EXTT8=
EXTT9=
EXTT10=
EXTT11=
EXTT12=
EXTT13=
EXTT14=
PLAYORDER=
